<svg width="864" height="711" viewBox="0 0 864 711" fill="none" xmlns="http://www.w3.org/2000/svg">
<g id="No Results">
<g id="circle">
<path id="Stroke 1" d="M28.0371 327.545V334.88" stroke="#D2D8DF" stroke-width="2.921" stroke-linecap="round"/>
<g id="Group 8">
<path id="Stroke 2" d="M11.5605 331.523L17.5541 337.693" stroke="#D2D8DF" stroke-width="2.921" stroke-linecap="round"/>
<path id="Stroke 4" d="M4.55273 347.947H13.0276" stroke="#D2D8DF" stroke-width="2.921" stroke-linecap="round"/>
<path id="Stroke 6" d="M10.875 364.664L16.8686 358.494" stroke="#D2D8DF" stroke-width="2.921" stroke-linecap="round"/>
</g>
<path id="Stroke 9" d="M28.0371 366.667V359.332" stroke="#D2D8DF" stroke-width="2.921" stroke-linecap="round"/>
<path id="Stroke 10" d="M40.2629 361.779L35.373 356.889" stroke="#D2D8DF" stroke-width="2.921" stroke-linecap="round"/>
<path id="Stroke 11" d="M50.0438 349.553H42.709" stroke="#D2D8DF" stroke-width="2.921" stroke-linecap="round"/>
<path id="Stroke 12" d="M45.1555 332.438L40.2656 337.327" stroke="#D2D8DF" stroke-width="2.921" stroke-linecap="round"/>
<path id="Stroke 13" d="M421.676 7.25977V12.1496" stroke="#D2D8DF" stroke-width="2.921" stroke-linecap="round"/>
<path id="Stroke 15" d="M407.004 21.9316H411.894" stroke="#D2D8DF" stroke-width="2.921" stroke-linecap="round"/>
<path id="Stroke 16" d="M421.676 36.6008V31.7109" stroke="#D2D8DF" stroke-width="2.921" stroke-linecap="round"/>
<path id="Stroke 17" d="M433.902 21.9316H429.012" stroke="#D2D8DF" stroke-width="2.921" stroke-linecap="round"/>
<path id="Stroke 18" d="M138.059 212.637V219.972" stroke="#D2D8DF" stroke-width="2.921" stroke-linecap="round"/>
<path id="Stroke 19" d="M116.057 234.639H123.391" stroke="#D2D8DF" stroke-width="2.921" stroke-linecap="round"/>
<path id="Stroke 20" d="M138.059 254.196V246.861" stroke="#D2D8DF" stroke-width="2.921" stroke-linecap="round"/>
<path id="Stroke 21" d="M157.622 234.639H150.287" stroke="#D2D8DF" stroke-width="2.921" stroke-linecap="round"/>
<g id="Group 42">
<path id="Stroke 22" d="M664.347 479.227C670.19 479.227 674.929 483.967 674.929 489.811C674.929 495.658 670.19 500.395 664.347 500.395C658.504 500.395 653.766 495.658 653.766 489.811" stroke="#D2D8DF" stroke-width="2.921" stroke-linecap="round"/>
<path id="Fill 26" fill-rule="evenodd" clip-rule="evenodd" d="M712.77 383.202C719.053 381.242 728.684 373.558 730.913 365.291C732.934 372.599 741.409 381.242 749.056 381.896C740.448 384.944 732.218 393.999 730.913 401.112C730.024 393.862 718.642 384.259 712.77 383.202Z" fill="#EBECEE"/>
<path id="Fill 28" fill-rule="evenodd" clip-rule="evenodd" d="M67.8223 475.964C70.9648 474.984 75.7782 471.143 76.8929 467.01C77.9037 470.662 82.1401 474.984 85.9635 475.312C81.6606 476.834 77.5467 481.363 76.8929 484.919C76.4487 481.294 70.7572 476.492 67.8223 475.964Z" fill="#EBECEE"/>
<path id="Fill 30" fill-rule="evenodd" clip-rule="evenodd" d="M126.139 135.86C126.139 140.394 122.465 144.067 117.934 144.067C113.4 144.067 109.729 140.394 109.729 135.86C109.729 131.327 113.4 127.652 117.934 127.652C122.465 127.652 126.139 131.327 126.139 135.86Z" fill="#D1D8DF"/>
<path id="Fill 32" fill-rule="evenodd" clip-rule="evenodd" d="M674.041 157.893C674.041 165.469 667.899 171.611 660.327 171.611C652.751 171.611 646.611 165.469 646.611 157.893C646.611 150.317 652.751 144.176 660.327 144.176C667.899 144.176 674.041 150.317 674.041 157.893Z" fill="#EBECEE"/>
<path id="Fill 34" fill-rule="evenodd" clip-rule="evenodd" d="M863.999 120.733C863.999 126.743 859.13 131.614 853.123 131.614C847.114 131.614 842.244 126.743 842.244 120.733C842.244 114.722 847.114 109.852 853.123 109.852C859.13 109.852 863.999 114.722 863.999 120.733Z" fill="#EBECEE"/>
<path id="Stroke 36" fill-rule="evenodd" clip-rule="evenodd" d="M279.483 628.932C279.483 632.721 276.413 635.792 272.625 635.792C268.839 635.792 265.77 632.721 265.77 628.932C265.77 625.143 268.839 622.072 272.625 622.072C276.413 622.072 279.483 625.143 279.483 628.932Z" stroke="#D2D8DF" stroke-width="2.921" stroke-linecap="round"/>
<path id="Stroke 38" fill-rule="evenodd" clip-rule="evenodd" d="M275.406 83.131C275.406 87.6654 271.732 91.3382 267.201 91.3382C262.67 91.3382 258.996 87.6654 258.996 83.131C258.996 78.5987 262.67 74.9238 267.201 74.9238C271.732 74.9238 275.406 78.5987 275.406 83.131Z" stroke="#D2D8DF" stroke-width="2.921" stroke-linecap="round"/>
<path id="Stroke 40" fill-rule="evenodd" clip-rule="evenodd" d="M484.702 704.888C479.459 706.884 473.591 704.249 471.596 699.006C469.602 693.762 472.234 687.891 477.479 685.897C482.72 683.902 488.588 686.535 490.582 691.779C492.579 697.024 489.945 702.893 484.702 704.888Z" stroke="#D2D8DF" stroke-width="2.921" stroke-linecap="round"/>
</g>
</g>
<g id="search">
<g id="documents">
<path id="Fill 1" fill-rule="evenodd" clip-rule="evenodd" d="M481.582 510.921H281.085C266.973 510.921 255.422 499.336 255.422 485.176V199.259C255.422 185.099 266.973 173.52 281.085 173.52H481.582C495.699 173.52 507.251 185.099 507.251 199.259V485.176C507.251 499.336 495.699 510.921 481.582 510.921Z" fill="#E0E2EE"/>
<path id="Fill 3" fill-rule="evenodd" clip-rule="evenodd" d="M464.466 523.144H263.97C249.858 523.144 238.307 511.558 238.307 497.399V211.481C238.307 197.322 249.858 185.742 263.97 185.742H464.466C478.584 185.742 490.135 197.322 490.135 211.481V497.399C490.135 511.558 478.584 523.144 464.466 523.144Z" fill="#E8EBF2"/>
<path id="Fill 5" fill-rule="evenodd" clip-rule="evenodd" d="M447.819 532.798H246.908C232.767 532.798 221.191 521.26 221.191 507.159V222.425C221.191 208.325 232.767 196.793 246.908 196.793H447.819C461.966 196.793 473.541 208.325 473.541 222.425V507.159C473.541 521.26 461.966 532.798 447.819 532.798Z" fill="#D8DBEA"/>
<path id="Fill 8" fill-rule="evenodd" clip-rule="evenodd" d="M447.819 532.798H246.908C232.767 532.798 221.191 521.26 221.191 507.159V222.425C221.191 208.325 232.767 196.793 246.908 196.793H447.819C461.966 196.793 473.541 208.325 473.541 222.425V507.159C473.541 521.26 461.966 532.798 447.819 532.798Z" fill="#F1F2F7"/>
<path id="Fill 11" fill-rule="evenodd" clip-rule="evenodd" d="M418.862 283.545H270.465C266.227 283.545 262.758 280.244 262.758 276.213C262.758 272.175 266.227 268.875 270.465 268.875H418.862C423.1 268.875 426.569 272.175 426.569 276.213C426.569 280.244 423.1 283.545 418.862 283.545Z" fill="#E0E2EE"/>
<path id="Fill 13" fill-rule="evenodd" clip-rule="evenodd" d="M418.862 327.549H270.465C266.227 327.549 262.758 324.248 262.758 320.216C262.758 316.179 266.227 312.879 270.465 312.879H418.862C423.1 312.879 426.569 316.179 426.569 320.216C426.569 324.248 423.1 327.549 418.862 327.549Z" fill="#E0E2EE"/>
<path id="Fill 15" fill-rule="evenodd" clip-rule="evenodd" d="M418.862 371.558H270.465C266.227 371.558 262.758 368.258 262.758 364.226C262.758 360.194 266.227 356.889 270.465 356.889H418.862C423.1 356.889 426.569 360.194 426.569 364.226C426.569 368.258 423.1 371.558 418.862 371.558Z" fill="#E0E2EE"/>
<path id="Fill 17" fill-rule="evenodd" clip-rule="evenodd" d="M418.862 415.568H270.465C266.227 415.568 262.758 412.268 262.758 408.236C262.758 404.199 266.227 400.898 270.465 400.898H418.862C423.1 400.898 426.569 404.199 426.569 408.236C426.569 412.268 423.1 415.568 418.862 415.568Z" fill="#E0E2EE"/>
<path id="Fill 19" fill-rule="evenodd" clip-rule="evenodd" d="M347.926 459.578H270.498C266.242 459.578 262.758 456.278 262.758 452.246C262.758 448.208 266.242 444.908 270.498 444.908H347.926C352.182 444.908 355.666 448.208 355.666 452.246C355.666 456.278 352.182 459.578 347.926 459.578Z" fill="#E0E2EE"/>
</g>
<g id="search_2">
<path id="Fill 21" fill-rule="evenodd" clip-rule="evenodd" d="M504.205 402.693C474.531 432.362 428.593 435.709 395.242 412.803C390.98 409.823 386.923 406.476 383.14 402.693C381.193 400.752 379.357 398.749 377.627 396.64C374.168 392.429 371.137 387.937 368.655 383.296C364.281 375.457 361.306 367.14 359.682 358.542C354.443 331.58 362.277 302.559 383.14 281.705C404.053 260.79 433.079 253.007 460.046 258.196C468.639 259.869 476.964 262.843 484.804 267.167C489.452 269.705 493.882 272.735 498.101 276.194C500.204 277.917 502.207 279.758 504.149 281.705C507.938 285.488 511.335 289.538 514.26 293.805C537.176 327.144 533.822 373.081 504.205 402.693Z" fill="white" fill-opacity="0.1"/>
<path id="Fill 23" fill-rule="evenodd" clip-rule="evenodd" d="M495.902 396.85C465.031 427.727 415.002 427.721 384.125 396.85C353.288 366.013 353.288 315.978 384.165 285.106C415.002 254.27 465.031 254.27 495.868 285.106C526.739 315.978 526.739 366.013 495.902 396.85ZM511.746 269.245C472.12 229.619 407.907 229.619 368.281 269.245C328.661 308.865 328.627 373.118 368.247 412.744C404.311 448.797 460.838 452.048 500.596 422.447C504.479 419.551 508.219 416.306 511.786 412.744C515.348 409.177 518.593 405.437 521.483 401.554C551.085 361.79 547.804 305.304 511.746 269.245Z" fill="#E0E2EE"/>
<path id="Fill 25" fill-rule="evenodd" clip-rule="evenodd" d="M667.689 562.115L666.025 563.779C655.019 574.79 636.996 574.79 625.985 563.779L524.361 462.155L566.065 420.451L667.689 522.075C678.701 533.086 678.701 551.103 667.689 562.115Z" fill="#C0C8FF"/>
<path id="Fill 27" fill-rule="evenodd" clip-rule="evenodd" d="M523.673 398.449L553.703 428.479L532.384 449.793L502.359 419.763C506.322 416.808 510.132 413.497 513.778 409.862C517.413 406.228 520.724 402.412 523.673 398.449Z" fill="#E0E2EE"/>
<path id="Fill 29" fill-rule="evenodd" clip-rule="evenodd" d="M666.172 520.829L624.734 562.262L617.273 554.796L658.706 513.363L666.172 520.829Z" fill="#2A41E8"/>
<path id="Fill 31" fill-rule="evenodd" clip-rule="evenodd" d="M568.373 421.889L525.8 464.463L519.475 458.139L562.048 415.564L568.373 421.889Z" fill="#2A41E8"/>
<path id="Fill 33" fill-rule="evenodd" clip-rule="evenodd" d="M475.461 274.485L371.054 378.887C367.122 371.84 364.448 364.362 362.994 356.633L453.206 266.42C460.93 267.93 468.414 270.598 475.461 274.485Z" fill="white" fill-opacity="0.5"/>
<path id="Fill 35" fill-rule="evenodd" clip-rule="evenodd" d="M509.691 299.301L396.815 405.782C392.773 403.121 388.926 400.126 385.338 396.741C383.491 394.999 381.744 393.212 380.109 391.325L494.36 283.535C496.361 285.083 498.261 286.731 500.102 288.473C503.69 291.858 506.918 295.482 509.691 299.301Z" fill="white" fill-opacity="0.5"/>
</g>
</g>
</g>
</svg>
